<svg width="663" height="666" viewBox="0 0 663 666" fill="none" xmlns="http://www.w3.org/2000/svg">
<path fill-rule="evenodd" clip-rule="evenodd" d="M661.908 373C642.149 538.051 501.659 666 331.286 666C160.912 666 20.4223 538.051 0.663304 373H203.665C220.108 429.617 272.364 471 334.286 471C396.207 471 448.463 429.617 464.906 373H661.908ZM662.571 299H465.47C449.688 241.36 396.934 199 334.286 199C271.637 199 218.883 241.36 203.101 299H0C17.0311 131.06 158.853 0 331.286 0C503.718 0 645.54 131.06 662.571 299Z" fill="#EEEEEE"/>
<circle cx="334.286" cy="333" r="75" fill="#EEEEEE"/>
</svg>
